<mxfile host="app.diagrams.net" modified="2022-09-07T08:24:55.909Z" agent="5.0 (Macintosh; Intel Mac OS X 10_15_7) AppleWebKit/537.36 (KHTML, like Gecko) Chrome/104.0.0.0 Safari/537.36" etag="LYwRvQnIOsJu8vV8cPqP" version="20.2.8" type="github">
  <diagram id="lZoOQaNsaj9JbqZNZX9P" name="Страница 1">
    <mxGraphModel dx="1186" dy="680" grid="1" gridSize="10" guides="1" tooltips="1" connect="1" arrows="1" fold="1" page="1" pageScale="1" pageWidth="827" pageHeight="1169" math="0" shadow="0">
      <root>
        <mxCell id="0" />
        <mxCell id="1" parent="0" />
        <mxCell id="DO4Eqjo9Ey0s3PQyP9QU-1" value="&lt;font style=&quot;font-size: 14px;&quot;&gt;&lt;b&gt;Algorigramme de la barre de recherche principale (Recherche Recette)&lt;/b&gt;&lt;/font&gt;" style="rounded=0;whiteSpace=wrap;html=1;fillColor=#94A2FF;" parent="1" vertex="1">
          <mxGeometry x="20" y="30" width="790" height="70" as="geometry" />
        </mxCell>
        <mxCell id="DO4Eqjo9Ey0s3PQyP9QU-4" style="edgeStyle=orthogonalEdgeStyle;rounded=0;orthogonalLoop=1;jettySize=auto;html=1;entryX=0.5;entryY=0;entryDx=0;entryDy=0;fontSize=14;" parent="1" source="DO4Eqjo9Ey0s3PQyP9QU-2" target="DO4Eqjo9Ey0s3PQyP9QU-3" edge="1">
          <mxGeometry relative="1" as="geometry" />
        </mxCell>
        <mxCell id="DO4Eqjo9Ey0s3PQyP9QU-2" value="Recherche" style="rounded=0;whiteSpace=wrap;html=1;fontSize=14;fillColor=#94A2FF;" parent="1" vertex="1">
          <mxGeometry x="280" y="120" width="120" height="60" as="geometry" />
        </mxCell>
        <mxCell id="DO4Eqjo9Ey0s3PQyP9QU-5" value="NON" style="edgeStyle=orthogonalEdgeStyle;rounded=0;orthogonalLoop=1;jettySize=auto;html=1;fontSize=14;entryX=0;entryY=0.5;entryDx=0;entryDy=0;" parent="1" source="DO4Eqjo9Ey0s3PQyP9QU-3" target="DO4Eqjo9Ey0s3PQyP9QU-20" edge="1">
          <mxGeometry relative="1" as="geometry">
            <mxPoint x="150" y="300" as="targetPoint" />
          </mxGeometry>
        </mxCell>
        <mxCell id="DO4Eqjo9Ey0s3PQyP9QU-6" value="OUI" style="edgeStyle=orthogonalEdgeStyle;rounded=0;orthogonalLoop=1;jettySize=auto;html=1;exitX=0.5;exitY=1;exitDx=0;exitDy=0;fontSize=14;entryX=0.5;entryY=0;entryDx=0;entryDy=0;" parent="1" source="DO4Eqjo9Ey0s3PQyP9QU-3" target="DO4Eqjo9Ey0s3PQyP9QU-7" edge="1">
          <mxGeometry relative="1" as="geometry">
            <mxPoint x="100" y="400" as="targetPoint" />
          </mxGeometry>
        </mxCell>
        <mxCell id="DO4Eqjo9Ey0s3PQyP9QU-3" value="Mot clé&amp;gt;2 caractères?" style="rhombus;whiteSpace=wrap;html=1;fontSize=14;fillColor=#94A2FF;" parent="1" vertex="1">
          <mxGeometry x="280" y="210" width="120" height="100" as="geometry" />
        </mxCell>
        <mxCell id="DO4Eqjo9Ey0s3PQyP9QU-9" value="" style="edgeStyle=orthogonalEdgeStyle;rounded=0;orthogonalLoop=1;jettySize=auto;html=1;fontSize=14;" parent="1" source="DO4Eqjo9Ey0s3PQyP9QU-7" target="DO4Eqjo9Ey0s3PQyP9QU-8" edge="1">
          <mxGeometry relative="1" as="geometry" />
        </mxCell>
        <mxCell id="DO4Eqjo9Ey0s3PQyP9QU-7" value="Recherche du mot clé dans le nom, les ingrédients et la description de la recette." style="rounded=0;whiteSpace=wrap;html=1;fontSize=14;fillColor=#94A2FF;" parent="1" vertex="1">
          <mxGeometry x="245" y="370" width="190" height="60" as="geometry" />
        </mxCell>
        <mxCell id="DO4Eqjo9Ey0s3PQyP9QU-11" value="NON" style="edgeStyle=orthogonalEdgeStyle;rounded=0;orthogonalLoop=1;jettySize=auto;html=1;fontSize=14;" parent="1" source="DO4Eqjo9Ey0s3PQyP9QU-8" target="DO4Eqjo9Ey0s3PQyP9QU-15" edge="1">
          <mxGeometry relative="1" as="geometry">
            <mxPoint x="250" y="570" as="targetPoint" />
          </mxGeometry>
        </mxCell>
        <mxCell id="DO4Eqjo9Ey0s3PQyP9QU-21" value="" style="edgeStyle=orthogonalEdgeStyle;rounded=0;orthogonalLoop=1;jettySize=auto;html=1;fontSize=14;" parent="1" source="DO4Eqjo9Ey0s3PQyP9QU-8" target="DO4Eqjo9Ey0s3PQyP9QU-20" edge="1">
          <mxGeometry relative="1" as="geometry" />
        </mxCell>
        <mxCell id="DO4Eqjo9Ey0s3PQyP9QU-25" value="OUI" style="edgeLabel;html=1;align=center;verticalAlign=middle;resizable=0;points=[];fontSize=14;" parent="DO4Eqjo9Ey0s3PQyP9QU-21" vertex="1" connectable="0">
          <mxGeometry x="-0.4168" y="-2" relative="1" as="geometry">
            <mxPoint as="offset" />
          </mxGeometry>
        </mxCell>
        <mxCell id="DO4Eqjo9Ey0s3PQyP9QU-8" value="Il y a des résultats&lt;br&gt;&amp;nbsp;de recherche?" style="rhombus;whiteSpace=wrap;html=1;fontSize=14;fillColor=#94A2FF;rounded=0;" parent="1" vertex="1">
          <mxGeometry x="265" y="465" width="150" height="135" as="geometry" />
        </mxCell>
        <mxCell id="DO4Eqjo9Ey0s3PQyP9QU-15" value="Afficher la fenêtre &quot;Aucun résultat&quot;" style="rounded=1;whiteSpace=wrap;html=1;fontSize=14;fillColor=#FF7575;" parent="1" vertex="1">
          <mxGeometry x="600" y="502.5" width="120" height="60" as="geometry" />
        </mxCell>
        <mxCell id="DO4Eqjo9Ey0s3PQyP9QU-24" value="" style="edgeStyle=orthogonalEdgeStyle;rounded=0;orthogonalLoop=1;jettySize=auto;html=1;fontSize=14;" parent="1" source="DO4Eqjo9Ey0s3PQyP9QU-20" target="DO4Eqjo9Ey0s3PQyP9QU-23" edge="1">
          <mxGeometry relative="1" as="geometry" />
        </mxCell>
        <mxCell id="DO4Eqjo9Ey0s3PQyP9QU-26" value="OUI" style="edgeStyle=orthogonalEdgeStyle;rounded=0;orthogonalLoop=1;jettySize=auto;html=1;fontSize=14;" parent="1" source="DO4Eqjo9Ey0s3PQyP9QU-20" target="DO4Eqjo9Ey0s3PQyP9QU-23" edge="1">
          <mxGeometry relative="1" as="geometry" />
        </mxCell>
        <mxCell id="DO4Eqjo9Ey0s3PQyP9QU-31" value="NON" style="edgeStyle=orthogonalEdgeStyle;rounded=0;orthogonalLoop=1;jettySize=auto;html=1;fontSize=14;" parent="1" source="DO4Eqjo9Ey0s3PQyP9QU-20" target="DO4Eqjo9Ey0s3PQyP9QU-30" edge="1">
          <mxGeometry relative="1" as="geometry" />
        </mxCell>
        <mxCell id="DO4Eqjo9Ey0s3PQyP9QU-20" value="Mots clés sélectionnés?" style="rhombus;whiteSpace=wrap;html=1;fontSize=14;fillColor=#94A2FF;rounded=0;" parent="1" vertex="1">
          <mxGeometry x="75" y="635" width="125" height="110" as="geometry" />
        </mxCell>
        <mxCell id="BbihR25V41p89azps13w-1" style="edgeStyle=orthogonalEdgeStyle;rounded=0;orthogonalLoop=1;jettySize=auto;html=1;exitX=1;exitY=0.5;exitDx=0;exitDy=0;entryX=0.469;entryY=1.008;entryDx=0;entryDy=0;entryPerimeter=0;" edge="1" parent="1" source="DO4Eqjo9Ey0s3PQyP9QU-23" target="DO4Eqjo9Ey0s3PQyP9QU-30">
          <mxGeometry relative="1" as="geometry" />
        </mxCell>
        <mxCell id="DO4Eqjo9Ey0s3PQyP9QU-23" value="Recherche par mot clé" style="whiteSpace=wrap;html=1;fontSize=14;fillColor=#94A2FF;rounded=0;" parent="1" vertex="1">
          <mxGeometry x="75" y="850" width="120" height="60" as="geometry" />
        </mxCell>
        <mxCell id="DO4Eqjo9Ey0s3PQyP9QU-30" value="Afficher le résultat" style="whiteSpace=wrap;html=1;fontSize=14;fillColor=#94FFA6;rounded=0;" parent="1" vertex="1">
          <mxGeometry x="300" y="630" width="290" height="120" as="geometry" />
        </mxCell>
      </root>
    </mxGraphModel>
  </diagram>
</mxfile>
